<?xml version="1.0" standalone="no"?><!DOCTYPE svg PUBLIC "-//W3C//DTD SVG 1.1//EN" "http://www.w3.org/Graphics/SVG/1.1/DTD/svg11.dtd"><svg t="1608277725052" class="icon" viewBox="0 0 1024 1024" version="1.1" xmlns="http://www.w3.org/2000/svg" p-id="2702" xmlns:xlink="http://www.w3.org/1999/xlink" width="64" height="64"><defs><style type="text/css"></style></defs><path d="M47.999969 511.999671c0-256.282188 207.717513-463.999701 463.999702-463.999702s463.999701 207.717513 463.999701 463.999702c0 113.129339-40.56468 216.846919-107.858754 297.411573-14.305873-73.505835-70.305837-73.788188-145.694024-89.411707-79.341125-16.564695-149.929315-19.48234-121.505804-125.458743 38.21174-28.047041 46.870558-85.270533 93.835234-104.188168 17.694106-22.870574 13.364697-60.235255 0-76.517598-13.27058-16.282342-21.647045-6.211761-24.658808-17.411754-2.72941-59.199962 19.952928-146.164612-20.705869-174.211652-6.682349-4.141174-12.988227-5.552938-20.141164-5.552938-7.058819 0-15.152931 1.411764-22.870573 1.411764-5.08235 0-11.011758-0.847058-15.811755-2.823528-22.870574-8.470583-24.094102-38.682328-49.317615-41.411738h-20.894104c-34.729389 23.435279-76.329363 19.388223-112.470516 29.64704-1.599999 0.37647-3.764703 0.752941-5.08235 1.505881-21.364692 6.776466-34.164684 19.388223-42.635266 35.764683-11.482346 22.682338-13.835285 53.458789-13.835286 87.811708-0.188235 20.141164 0.37647 42.070561 0.376471 64.282312-17.976459 9.505876-25.223513 29.176452-25.599984 49.694086-0.470588 11.858816 1.129411 24.470572 4.705879 34.729389 5.647055 19.199988 23.435279 24.094102 38.117623 41.882326 17.129401 21.082339 28.988217 49.694086 43.952913 65.50584 5.929408 5.552938 11.670581 9.411759 19.294105 11.011758v68.705838c-5.929408 7.717642-12.235286 14.211756-19.294105 19.670576-64.7529 54.494083-196.517521 30.964686-238.964552 112.094045-5.270585 10.635287-7.717642 14.02352-9.411759 17.411754C90.07053 732.517176 47.999969 627.199596 47.999969 511.999671z m975.999372 0C1023.999341 229.270441 794.823018 0 511.999671 0S0 229.270441 0 511.999671c0 149.082257 63.717606 283.199818 165.364599 376.752698 8.752936 11.199993 21.45881 21.741162 37.647035 31.435274A509.326731 509.326731 0 0 0 511.999671 1023.999341c122.07051 0 234.070438-42.729384 322.070381-114.070515 6.211761-4.517644 11.764698-9.223523 16.658812-14.117638 106.164638-93.835234 173.270477-230.964557 173.270477-383.811517z" p-id="2703"></path></svg>